<?xml version="1.0" encoding="utf-8"?>
<!-- Generator: Adobe Illustrator 19.0.0, SVG Export Plug-In . SVG Version: 6.00 Build 0)  -->
<svg version="1.1" xmlns="http://www.w3.org/2000/svg" xmlns:xlink="http://www.w3.org/1999/xlink" x="0px" y="0px"
	 viewBox="0 0 840 170" style="enable-background:new 0 0 840 170;" xml:space="preserve">
<style type="text/css">
	.st0{fill:#FFFFFF;stroke:#FFFFFF;stroke-miterlimit:10;}
	.st1{enable-background:new    ;}
	.st2{fill:#73C2D1;}
	.st3{fill:#73C2D3;}
</style>
<g id="Layer_1">
	<rect class="st0" width="840" height="170"/>
</g>
<g id="Layer_2">
	<g>
		<g id="XMLID_1_">
			<g id="XMLID_21_" class="st1">
				<path class="st2" d="M80.6,77.6c1.5,0,2.8-0.1,4-0.2c1.2-0.1,2.3-0.4,3.4-0.7c1-0.3,2-0.6,2.9-1.1s1.9-0.9,2.8-1.4V63h-8.2
					c-0.2,0-0.4-0.1-0.6-0.2c-0.2-0.1-0.2-0.3-0.2-0.5v-1.6h11.8v14.7c-1.1,0.7-2.2,1.4-3.3,1.9c-1.1,0.6-2.4,1-3.7,1.4
					c-1.3,0.4-2.7,0.7-4.2,0.9c-1.5,0.2-3.1,0.3-4.9,0.3c-3.1,0-5.9-0.5-8.4-1.5c-2.5-1-4.7-2.4-6.5-4.3c-1.8-1.8-3.2-4.1-4.2-6.7
					c-1-2.6-1.5-5.5-1.5-8.7c0-3.2,0.5-6.1,1.5-8.7c1-2.6,2.4-4.8,4.3-6.7s4.1-3.3,6.7-4.3c2.6-1,5.6-1.5,8.9-1.5
					c1.6,0,3.1,0.1,4.5,0.3c1.4,0.2,2.6,0.5,3.8,1c1.2,0.4,2.3,0.9,3.3,1.6c1,0.6,2,1.3,2.9,2.1l-0.8,1.3c-0.2,0.3-0.4,0.4-0.8,0.4
					c-0.2,0-0.4,0-0.5-0.1c-0.3-0.1-0.7-0.4-1.3-0.8c-0.6-0.4-1.3-0.9-2.3-1.3c-1-0.5-2.2-0.9-3.7-1.3c-1.5-0.4-3.2-0.6-5.3-0.6
					c-2.8,0-5.3,0.4-7.5,1.3c-2.2,0.9-4.1,2.1-5.7,3.7c-1.6,1.6-2.8,3.6-3.6,5.9c-0.9,2.3-1.3,4.9-1.3,7.8c0,2.9,0.4,5.6,1.3,7.9
					c0.9,2.3,2.1,4.3,3.6,5.9c1.6,1.6,3.4,2.8,5.6,3.7C75.6,77.1,78,77.6,80.6,77.6z"/>
				<path class="st2" d="M145.2,58.8c0,3.2-0.5,6.1-1.5,8.7c-1,2.6-2.4,4.8-4.1,6.7s-3.9,3.3-6.4,4.3c-2.5,1-5.2,1.5-8.3,1.5
					c-3,0-5.7-0.5-8.2-1.5c-2.5-1-4.6-2.4-6.4-4.3c-1.8-1.8-3.2-4.1-4.2-6.7s-1.5-5.5-1.5-8.7c0-3.2,0.5-6.1,1.5-8.7
					c1-2.6,2.4-4.8,4.2-6.7c1.8-1.8,3.9-3.3,6.4-4.3c2.5-1,5.2-1.5,8.2-1.5c3,0,5.8,0.5,8.3,1.5c2.5,1,4.6,2.4,6.4,4.3
					c1.8,1.9,3.2,4.1,4.1,6.7C144.7,52.7,145.2,55.6,145.2,58.8z M142,58.8c0-2.9-0.4-5.5-1.2-7.8c-0.8-2.3-2-4.3-3.5-5.9
					c-1.5-1.6-3.3-2.8-5.4-3.7c-2.1-0.8-4.4-1.3-7-1.3c-2.5,0-4.8,0.4-6.9,1.3c-2.1,0.8-3.9,2.1-5.4,3.7c-1.5,1.6-2.7,3.6-3.5,5.9
					c-0.8,2.3-1.2,4.9-1.2,7.8c0,2.9,0.4,5.5,1.2,7.8c0.8,2.3,2,4.2,3.5,5.8s3.3,2.8,5.4,3.7c2.1,0.8,4.4,1.3,6.9,1.3
					c2.6,0,4.9-0.4,7-1.3c2.1-0.8,3.9-2.1,5.4-3.7c1.5-1.6,2.6-3.5,3.5-5.8C141.6,64.3,142,61.7,142,58.8z"/>
				<path class="st2" d="M193.2,58.8c0,3.2-0.5,6.1-1.5,8.7c-1,2.6-2.4,4.8-4.1,6.7s-3.9,3.3-6.4,4.3c-2.5,1-5.2,1.5-8.3,1.5
					c-3,0-5.7-0.5-8.2-1.5c-2.5-1-4.6-2.4-6.4-4.3c-1.8-1.8-3.2-4.1-4.2-6.7s-1.5-5.5-1.5-8.7c0-3.2,0.5-6.1,1.5-8.7
					c1-2.6,2.4-4.8,4.2-6.7c1.8-1.8,3.9-3.3,6.4-4.3c2.5-1,5.2-1.5,8.2-1.5c3,0,5.8,0.5,8.3,1.5c2.5,1,4.6,2.4,6.4,4.3
					c1.8,1.9,3.2,4.1,4.1,6.7C192.7,52.7,193.2,55.6,193.2,58.8z M190,58.8c0-2.9-0.4-5.5-1.2-7.8c-0.8-2.3-2-4.3-3.5-5.9
					c-1.5-1.6-3.3-2.8-5.4-3.7c-2.1-0.8-4.4-1.3-7-1.3c-2.5,0-4.8,0.4-6.9,1.3c-2.1,0.8-3.9,2.1-5.4,3.7c-1.5,1.6-2.7,3.6-3.5,5.9
					c-0.8,2.3-1.2,4.9-1.2,7.8c0,2.9,0.4,5.5,1.2,7.8c0.8,2.3,2,4.2,3.5,5.8s3.3,2.8,5.4,3.7c2.1,0.8,4.4,1.3,6.9,1.3
					c2.6,0,4.9-0.4,7-1.3c2.1-0.8,3.9-2.1,5.4-3.7c1.5-1.6,2.6-3.5,3.5-5.8C189.6,64.3,190,61.7,190,58.8z"/>
				<path class="st2" d="M239,58.8c0,3.2-0.5,6.1-1.5,8.6c-1,2.6-2.4,4.7-4.1,6.5c-1.8,1.8-3.9,3.2-6.4,4.1c-2.5,1-5.2,1.4-8.3,1.4
					h-15.5V38.1h15.5c3,0,5.8,0.5,8.3,1.4c2.5,1,4.6,2.3,6.4,4.1c1.8,1.8,3.2,4,4.1,6.5C238.5,52.7,239,55.6,239,58.8z M235.8,58.8
					c0-2.9-0.4-5.5-1.2-7.7c-0.8-2.3-2-4.2-3.5-5.7c-1.5-1.6-3.3-2.8-5.4-3.6c-2.1-0.8-4.4-1.2-7-1.2h-12.4v36.6h12.4
					c2.6,0,4.9-0.4,7-1.2c2.1-0.8,3.9-2,5.4-3.6c1.5-1.6,2.6-3.5,3.5-5.7C235.4,64.3,235.8,61.7,235.8,58.8z"/>
				<path class="st2" d="M264.6,79.5h-3.1V38.1h3.1V79.5z"/>
				<path class="st2" d="M314.2,58.8c0,3.2-0.5,6.1-1.5,8.6c-1,2.6-2.4,4.7-4.1,6.5c-1.8,1.8-3.9,3.2-6.4,4.1
					c-2.5,1-5.2,1.4-8.3,1.4h-15.5V38.1h15.5c3,0,5.8,0.5,8.3,1.4c2.5,1,4.6,2.3,6.4,4.1c1.8,1.8,3.2,4,4.1,6.5
					C313.7,52.7,314.2,55.6,314.2,58.8z M311,58.8c0-2.9-0.4-5.5-1.2-7.7c-0.8-2.3-2-4.2-3.5-5.7c-1.5-1.6-3.3-2.8-5.4-3.6
					c-2.1-0.8-4.4-1.2-7-1.2h-12.4v36.6h12.4c2.6,0,4.9-0.4,7-1.2c2.1-0.8,3.9-2,5.4-3.6c1.5-1.6,2.6-3.5,3.5-5.7
					C310.6,64.3,311,61.7,311,58.8z"/>
				<path class="st2" d="M349.6,38.1v2.5h-22.4v16.8h18.6v2.4h-18.6V77h22.4v2.5h-25.5V38.1H349.6z"/>
				<path class="st2" d="M391.6,79.5h-2.4c-0.3,0-0.5-0.1-0.7-0.2c-0.2-0.1-0.3-0.3-0.4-0.6l-5-12h-20.9l-5,12
					c-0.1,0.2-0.2,0.4-0.4,0.6c-0.2,0.2-0.4,0.2-0.7,0.2h-2.3l17.4-41.4h3.1L391.6,79.5z M363.1,64.5h19.1l-8.7-20.9
					c-0.1-0.3-0.3-0.7-0.4-1.1c-0.1-0.4-0.3-0.9-0.4-1.3c-0.1,0.5-0.3,0.9-0.4,1.3c-0.1,0.4-0.3,0.8-0.4,1.2L363.1,64.5z"/>
				<path class="st2" d="M418.9,43.1c-0.2,0.3-0.4,0.5-0.8,0.5c-0.3,0-0.6-0.2-1-0.5c-0.4-0.4-1-0.8-1.7-1.2
					c-0.7-0.4-1.6-0.8-2.6-1.2c-1.1-0.4-2.4-0.6-3.9-0.6c-1.5,0-2.9,0.2-4.1,0.6c-1.2,0.4-2.2,1-3,1.8c-0.8,0.7-1.4,1.6-1.8,2.6
					c-0.4,1-0.6,2-0.6,3.1c0,1.4,0.3,2.6,0.9,3.5c0.6,0.9,1.4,1.7,2.4,2.3c1,0.6,2.1,1.2,3.4,1.6s2.6,0.9,3.9,1.3
					c1.3,0.4,2.7,0.9,3.9,1.4s2.4,1.2,3.4,1.9c1,0.8,1.8,1.7,2.4,2.9c0.6,1.1,0.9,2.6,0.9,4.3c0,1.7-0.3,3.4-0.9,4.9s-1.5,2.9-2.7,4
					c-1.2,1.1-2.6,2-4.3,2.7c-1.7,0.7-3.6,1-5.8,1c-2.8,0-5.2-0.5-7.2-1.5c-2-1-3.8-2.3-5.3-4l0.8-1.3c0.2-0.3,0.5-0.4,0.8-0.4
					c0.2,0,0.4,0.1,0.7,0.4s0.6,0.5,1,0.9c0.4,0.3,0.9,0.7,1.4,1.1c0.6,0.4,1.2,0.8,2,1.1c0.7,0.3,1.6,0.6,2.6,0.9s2.1,0.4,3.3,0.4
					c1.7,0,3.2-0.2,4.5-0.7c1.3-0.5,2.4-1.2,3.4-2c0.9-0.9,1.6-1.9,2.1-3.1c0.5-1.2,0.7-2.4,0.7-3.8c0-1.5-0.3-2.7-0.9-3.6
					c-0.6-0.9-1.4-1.7-2.4-2.4c-1-0.6-2.1-1.2-3.4-1.6s-2.6-0.8-3.9-1.3c-1.3-0.4-2.7-0.9-3.9-1.4s-2.4-1.2-3.4-1.9
					c-1-0.8-1.8-1.8-2.4-3c-0.6-1.2-0.9-2.7-0.9-4.4c0-1.4,0.3-2.7,0.8-4c0.5-1.3,1.3-2.4,2.4-3.4c1-1,2.3-1.8,3.9-2.4
					c1.5-0.6,3.3-0.9,5.3-0.9c2.2,0,4.2,0.3,5.9,1c1.8,0.7,3.4,1.7,4.8,3.1L418.9,43.1z"/>
			</g>
		</g>
		<g id="XMLID_3_">
			<g id="XMLID_22_" class="st1">
				<path class="st3" d="M283.7,111.2c-0.1,0.1-0.2,0.2-0.3,0.2s-0.2,0.1-0.4,0.1c-0.2,0-0.5-0.1-0.8-0.4s-0.8-0.5-1.4-0.8
					c-0.6-0.3-1.3-0.6-2.2-0.8s-1.9-0.4-3.1-0.4c-1.7,0-3.2,0.3-4.5,0.9c-1.3,0.6-2.4,1.4-3.3,2.5s-1.6,2.4-2.1,3.9
					s-0.7,3.3-0.7,5.2c0,2,0.2,3.8,0.7,5.3c0.5,1.5,1.2,2.8,2.1,3.9s2,1.9,3.2,2.4s2.7,0.8,4.2,0.8c1.4,0,2.6-0.2,3.6-0.5
					c1-0.3,1.8-0.7,2.4-1.1s1.1-0.7,1.5-1.1c0.4-0.3,0.7-0.5,0.9-0.5c0.3,0,0.5,0.1,0.6,0.3l0.8,0.9c-0.5,0.6-1,1.1-1.7,1.6
					c-0.7,0.5-1.5,0.9-2.3,1.3c-0.9,0.4-1.8,0.6-2.8,0.8c-1,0.2-2.1,0.3-3.2,0.3c-1.9,0-3.6-0.3-5.1-1c-1.6-0.7-2.9-1.6-4-2.9
					c-1.1-1.2-2-2.8-2.6-4.6c-0.6-1.8-0.9-3.9-0.9-6.2c0-2.2,0.3-4.2,0.9-5.9c0.6-1.8,1.5-3.3,2.6-4.6c1.1-1.3,2.5-2.3,4.2-3
					c1.7-0.7,3.5-1.1,5.7-1.1c1.9,0,3.6,0.3,5.1,0.9c1.5,0.6,2.8,1.4,3.9,2.4L283.7,111.2z"/>
				<path class="st3" d="M302.6,106.9c2.1,0,4,0.3,5.7,1c1.7,0.7,3.1,1.7,4.2,3c1.1,1.3,2,2.8,2.6,4.6c0.6,1.8,0.9,3.8,0.9,6
					c0,2.2-0.3,4.2-0.9,6c-0.6,1.8-1.5,3.3-2.6,4.6c-1.1,1.3-2.6,2.3-4.2,2.9c-1.7,0.7-3.6,1-5.7,1c-2.1,0-4-0.3-5.7-1
					c-1.7-0.7-3.1-1.7-4.2-2.9c-1.2-1.3-2-2.8-2.6-4.6c-0.6-1.8-0.9-3.8-0.9-6c0-2.2,0.3-4.2,0.9-6c0.6-1.8,1.5-3.3,2.6-4.6
					s2.6-2.3,4.2-3C298.5,107.3,300.4,106.9,302.6,106.9z M302.6,134c1.8,0,3.3-0.3,4.6-0.9c1.3-0.6,2.4-1.4,3.3-2.5
					c0.9-1.1,1.5-2.4,2-3.9c0.4-1.5,0.7-3.3,0.7-5.2c0-1.9-0.2-3.6-0.7-5.1c-0.4-1.5-1.1-2.9-2-4c-0.9-1.1-2-1.9-3.3-2.5
					c-1.3-0.6-2.9-0.9-4.6-0.9c-1.8,0-3.3,0.3-4.6,0.9c-1.3,0.6-2.4,1.4-3.3,2.5c-0.9,1.1-1.5,2.4-2,4c-0.4,1.5-0.7,3.3-0.7,5.1
					c0,1.9,0.2,3.6,0.7,5.2c0.4,1.5,1.1,2.8,2,3.9c0.9,1.1,2,1.9,3.3,2.5C299.3,133.7,300.8,134,302.6,134z"/>
				<path class="st3" d="M323.4,135.8v-28.4h1.5c0.5,0,0.8,0.2,0.9,0.7l0.3,4.1c0.6-0.8,1.2-1.5,1.8-2.1c0.7-0.6,1.4-1.2,2.1-1.7
					c0.7-0.5,1.5-0.8,2.4-1.1c0.8-0.3,1.7-0.4,2.7-0.4c2.2,0,3.9,0.6,5.2,1.8c1.3,1.2,2.2,2.9,2.6,5c0.4-1.2,0.9-2.2,1.5-3.1
					c0.6-0.9,1.4-1.6,2.2-2.1c0.8-0.6,1.7-1,2.7-1.3c1-0.3,2-0.4,3-0.4c1.5,0,2.8,0.2,3.9,0.7c1.2,0.5,2.2,1.2,3,2.1s1.4,2,1.9,3.4
					c0.4,1.3,0.7,2.9,0.7,4.6v18.2h-2.8v-18.2c0-2.8-0.6-4.9-1.9-6.4s-3-2.2-5.3-2.2c-1,0-2,0.2-3,0.5c-0.9,0.4-1.8,0.9-2.5,1.6
					c-0.7,0.7-1.3,1.6-1.7,2.7c-0.4,1.1-0.6,2.3-0.6,3.7v18.2h-2.8v-18.2c0-2.8-0.6-4.9-1.7-6.3c-1.1-1.5-2.8-2.2-5-2.2
					c-1.6,0-3.1,0.5-4.5,1.4c-1.4,0.9-2.6,2.2-3.6,3.8v21.5H323.4z"/>
				<path class="st3" d="M381.7,106.9c1.7,0,3.2,0.3,4.6,0.8c1.4,0.6,2.6,1.4,3.7,2.4c1,1.1,1.8,2.4,2.4,3.9
					c0.6,1.5,0.9,3.3,0.9,5.3c0,0.4-0.1,0.7-0.2,0.9s-0.3,0.2-0.6,0.2h-21.3v0.5c0,2.1,0.3,4,0.8,5.6c0.5,1.6,1.2,3,2.2,4.1
					c0.9,1.1,2.1,1.9,3.4,2.5c1.3,0.6,2.8,0.8,4.5,0.8c1.5,0,2.8-0.2,3.9-0.5c1.1-0.3,2-0.7,2.7-1.1s1.3-0.7,1.8-1.1
					c0.4-0.3,0.8-0.5,0.9-0.5c0.3,0,0.5,0.1,0.6,0.3l0.8,0.9c-0.5,0.6-1.1,1.1-1.9,1.6c-0.8,0.5-1.7,0.9-2.6,1.3s-2,0.6-3.1,0.8
					c-1.1,0.2-2.2,0.3-3.3,0.3c-2,0-3.9-0.3-5.5-1c-1.7-0.7-3.1-1.7-4.3-3c-1.2-1.3-2.1-2.9-2.8-4.8c-0.6-1.9-1-4-1-6.4
					c0-2,0.3-3.9,0.9-5.6c0.6-1.7,1.5-3.2,2.6-4.5c1.1-1.2,2.5-2.2,4.2-2.9C377.8,107.3,379.6,106.9,381.7,106.9z M381.8,108.9
					c-1.5,0-2.9,0.2-4.1,0.7s-2.2,1.1-3.1,2c-0.9,0.9-1.6,1.9-2.1,3.1c-0.5,1.2-0.9,2.5-1.1,4h19.4c0-1.5-0.2-2.9-0.7-4.1
					c-0.4-1.2-1-2.2-1.8-3.1c-0.8-0.8-1.7-1.5-2.8-1.9C384.4,109.2,383.1,108.9,381.8,108.9z"/>
				<path class="st3" d="M417.2,110.9c-0.1,0.3-0.4,0.4-0.7,0.4c-0.2,0-0.5-0.1-0.8-0.4c-0.3-0.2-0.8-0.5-1.4-0.8
					c-0.6-0.3-1.3-0.6-2.1-0.8c-0.8-0.2-1.8-0.4-3-0.4c-1.1,0-2,0.1-2.9,0.4c-0.9,0.3-1.6,0.7-2.3,1.2s-1.1,1.1-1.5,1.7
					c-0.3,0.7-0.5,1.3-0.5,2.1c0,0.9,0.2,1.6,0.7,2.2c0.5,0.6,1.1,1.1,1.9,1.5s1.6,0.8,2.6,1.1c1,0.3,2,0.6,3,0.9s2,0.6,3,1
					c1,0.4,1.9,0.8,2.6,1.4c0.8,0.6,1.4,1.2,1.9,2c0.5,0.8,0.7,1.8,0.7,2.9c0,1.2-0.2,2.4-0.7,3.5c-0.5,1.1-1.1,2-2,2.8
					c-0.9,0.8-2,1.4-3.2,1.9c-1.3,0.5-2.8,0.7-4.4,0.7c-2.1,0-3.9-0.3-5.4-1s-2.8-1.5-4-2.5l0.7-1c0.1-0.2,0.2-0.3,0.3-0.3
					s0.3-0.1,0.5-0.1c0.3,0,0.6,0.2,0.9,0.5c0.4,0.3,0.9,0.6,1.5,1c0.6,0.4,1.4,0.7,2.3,1c0.9,0.3,2,0.5,3.3,0.5
					c1.2,0,2.3-0.2,3.3-0.5c0.9-0.3,1.7-0.8,2.4-1.4c0.6-0.6,1.1-1.2,1.4-2c0.3-0.8,0.5-1.6,0.5-2.4c0-1-0.2-1.7-0.7-2.4
					s-1.1-1.2-1.9-1.6s-1.6-0.8-2.6-1.1s-2-0.6-3-0.9s-2-0.6-3-1c-1-0.4-1.9-0.8-2.6-1.4s-1.4-1.2-1.9-2c-0.5-0.8-0.7-1.8-0.7-3
					c0-1,0.2-2,0.7-2.9c0.5-0.9,1.1-1.8,1.9-2.5c0.8-0.7,1.9-1.3,3.1-1.7s2.6-0.6,4.1-0.6c1.8,0,3.4,0.3,4.8,0.8s2.7,1.3,3.8,2.3
					L417.2,110.9z"/>
			</g>
		</g>
		<g id="XMLID_4_">
			<g id="XMLID_20_" class="st1">
				<path class="st2" d="M499,36.6v18h-35.6v25.6h29.7v18.1h-29.7v39.3h-20.2v-101H499z"/>
				<path class="st2" d="M531.5,137.6h-20.2v-101h20.2V137.6z"/>
				<path class="st2" d="M567.7,100.2v37.4h-20.1v-101h28.2c6.3,0,11.6,0.8,16,2.3c4.4,1.5,8,3.6,10.8,6.3c2.8,2.7,4.8,5.8,6.1,9.5
					c1.3,3.7,1.9,7.6,1.9,11.9c0,3.3-0.4,6.4-1.1,9.3c-0.8,2.9-1.9,5.6-3.4,8.1c-1.5,2.5-3.3,4.7-5.5,6.6c-2.2,1.9-4.7,3.5-7.5,4.8
					c1.3,0.8,2.6,1.8,3.8,2.9c1.2,1.2,2.2,2.6,3.1,4.2l18.5,35.1h-18.2c-3.4,0-5.8-1.5-7.3-4.4l-14.4-29.3c-0.6-1.3-1.4-2.2-2.2-2.8
					c-0.9-0.6-2.1-0.8-3.6-0.8H567.7z M567.7,84.1h8.1c2.7,0,5.1-0.4,7-1.2c1.9-0.8,3.5-1.9,4.7-3.4c1.2-1.4,2.1-3.1,2.7-5
					c0.6-1.9,0.8-4,0.8-6.2c0-4.4-1.2-7.9-3.7-10.4c-2.5-2.5-6.3-3.7-11.5-3.7h-8.1V84.1z"/>
				<path class="st2" d="M675.2,57.1c-0.6,1.1-1.2,1.9-1.9,2.5s-1.5,0.8-2.5,0.8c-0.9,0-1.9-0.3-2.9-1c-1.1-0.7-2.2-1.4-3.6-2.3
					c-1.3-0.8-2.8-1.6-4.6-2.3c-1.7-0.7-3.7-1-5.8-1c-3.8,0-6.6,0.9-8.4,2.8c-1.8,1.9-2.8,4.4-2.8,7.6c0,2,0.6,3.7,1.7,5.1
					c1.1,1.3,2.6,2.5,4.4,3.5c1.8,1,3.9,1.9,6.2,2.7c2.3,0.8,4.7,1.7,7.1,2.7c2.4,1,4.8,2.2,7.1,3.5c2.3,1.3,4.4,3.1,6.2,5.1
					c1.8,2.1,3.3,4.6,4.4,7.6c1.1,3,1.7,6.6,1.7,10.8c0,4.7-0.7,9-2.1,13.1c-1.4,4.1-3.4,7.6-6,10.6c-2.6,3-5.9,5.4-9.8,7.1
					c-3.9,1.7-8.3,2.6-13.2,2.6c-2.7,0-5.4-0.3-8.2-1s-5.5-1.6-8.1-2.7s-5.1-2.6-7.4-4.2c-2.3-1.6-4.3-3.4-6-5.4l6-11
					c0.4-0.8,1.1-1.5,1.8-2c0.8-0.5,1.6-0.8,2.6-0.8c1.2,0,2.4,0.4,3.6,1.3s2.6,1.8,4.1,2.9c1.5,1.1,3.3,2,5.3,2.9
					c2,0.9,4.3,1.3,7,1.3c3.7,0,6.5-0.9,8.5-2.8c2-1.9,3-4.8,3-8.9c0-2.4-0.6-4.3-1.7-5.8c-1.1-1.5-2.6-2.7-4.4-3.7
					c-1.8-1-3.9-1.8-6.2-2.6c-2.3-0.7-4.7-1.6-7.1-2.5c-2.4-0.9-4.8-2-7.1-3.3c-2.3-1.3-4.4-3.1-6.2-5.2c-1.8-2.1-3.3-4.8-4.4-8
					c-1.1-3.2-1.7-7.2-1.7-11.9c0-3.8,0.7-7.5,2-11.1c1.3-3.6,3.2-6.8,5.8-9.6c2.5-2.8,5.7-5.1,9.3-6.8c3.7-1.7,7.9-2.5,12.7-2.5
					c2.7,0,5.3,0.2,7.8,0.7s4.9,1.2,7.2,2.1c2.3,0.9,4.4,2.1,6.3,3.4c2,1.3,3.7,2.8,5.3,4.5L675.2,57.1z"/>
				<path class="st2" d="M754.4,36.6v18.6H730v82.4h-20.1V55.2h-24.4V36.6H754.4z"/>
				<path class="st2" d="M767.5,126.7c0-1.7,0.3-3.2,0.8-4.6s1.3-2.7,2.2-3.7c0.9-1.1,2-1.9,3.3-2.5c1.3-0.6,2.7-0.9,4.2-0.9
					c1.5,0,2.8,0.3,4.1,0.9s2.4,1.5,3.3,2.5c1,1.1,1.7,2.3,2.2,3.7s0.8,3,0.8,4.6s-0.3,3.2-0.8,4.7s-1.3,2.7-2.2,3.8
					c-1,1.1-2.1,1.9-3.3,2.5s-2.6,0.9-4.1,0.9c-1.5,0-2.9-0.3-4.2-0.9c-1.3-0.6-2.4-1.4-3.3-2.5c-0.9-1.1-1.7-2.3-2.2-3.8
					S767.5,128.4,767.5,126.7z M786.8,36.6v39.7c0,4.3-0.2,8.5-0.7,12.7c-0.4,4.2-1,8.4-1.7,12.8h-12.5c-0.7-4.3-1.3-8.6-1.7-12.8
					c-0.4-4.2-0.7-8.4-0.7-12.7V36.6H786.8z"/>
			</g>
		</g>
	</g>
</g>
</svg>
